<svg width="35" height="35" viewBox="0 0 312.5 312.5" class="css-1j8o68f"><defs id="SvgjsDefs7001"></defs><g id="SvgjsG7002" featurekey="rootContainer" transform="matrix(1.5591478891360584,0,0,1.5591478891360584,0,0)" fill="#ffffff"><path xmlns="http://www.w3.org/2000/svg" d="M100.215 200.43c55.259 0 100.215-44.956 100.215-100.215S155.474 0 100.215 0 0 44.956 0 100.215 44.956 200.43 100.215 200.43zm0-190.43c49.745 0 90.215 40.47 90.215 90.215s-40.47 90.215-90.215 90.215C50.47 190.43 10 149.959 10 100.215S50.47 10 100.215 10z"></path></g><g id="SvgjsG7003" featurekey="nameFeature-0" transform="matrix(3.7369210116703235,0,0,3.7369210116703235,43.89237143179311,63.630789883296764)" fill="#ffffff"><path d="M21.12 11.04 q2.44 0.92 4.4 2.96 q4.2 4.24 4.2 10.82 t-4.2 10.86 q-1.96 2.04 -4.4 2.96 q-2.52 1.04 -5.16 1.04 l-11.32 0 q-0.56 0 -0.98 -0.42 t-0.42 -0.98 l0 -2.88 q0 -0.6 0.42 -1.02 t0.98 -0.42 l11.2 0 q3.56 0 5.78 -2.6 t2.22 -6.52 t-2.22 -6.52 t-5.78 -2.6 l-11.2 0 q-0.56 0 -0.98 -0.42 t-0.42 -1.02 l0 -2.88 q0 -0.56 0.42 -0.98 t0.98 -0.42 l11.32 0 q2.64 0 5.16 1.04 z M53.56 22.24 q0.6 0 1.02 0.42 t0.42 1.02 l0 2.96 q0 0.56 -0.42 0.98 t-1.02 0.42 l-13.16 0 l0 10.24 q0 0.56 -0.4 0.98 t-1 0.42 l-3.04 0 q-0.56 0 -0.98 -0.42 t-0.42 -0.98 l0 -14.6 q0 -0.6 0.42 -1.02 t0.98 -0.42 l17.6 0 z M55.36 10 q0.56 0 0.98 0.42 t0.42 0.98 l0 2.92 q0 0.6 -0.42 1.02 t-0.98 0.42 l-19.4 0 q-0.56 0 -0.98 -0.42 t-0.42 -1.02 l0 -2.92 q0 -0.56 0.42 -0.98 t0.98 -0.42 l19.4 0 z"></path></g></svg>